<?xml version="1.0" encoding="UTF-8"?>
<svg id="Layer_1" xmlns="http://www.w3.org/2000/svg" version="1.1" viewBox="0 0 1920 761.78">
  <!-- Generator: Adobe Illustrator 29.3.1, SVG Export Plug-In . SVG Version: 2.1.0 Build 151)  -->
  <defs>
    <style>
      .st0 {
        fill: #fff;
      }

      .st1 {
        fill: #b2ff00;
      }
    </style>
  </defs>
  <path class="st0" d="M1834.74,130.56c-8.42,0-15.97-1.07-22.65-3.22-6.68-2.15-12.32-5.33-16.94-9.54-4.62-4.21-8.13-9.48-10.55-15.79-2.42-6.32-3.63-13.6-3.63-21.84s1.21-15.64,3.63-21.91c2.42-6.27,5.94-11.54,10.55-15.79,4.61-4.25,10.26-7.46,16.94-9.61,6.67-2.15,14.22-3.23,22.65-3.23s15.95,1.08,22.58,3.23c6.63,2.15,12.28,5.36,16.94,9.61,4.66,4.26,8.22,9.52,10.69,15.79,2.46,6.27,3.69,13.57,3.69,21.91s-1.23,15.52-3.69,21.84c-2.47,6.32-6.05,11.58-10.75,15.79-4.71,4.21-10.35,7.39-16.94,9.54-6.59,2.15-14.09,3.22-22.52,3.22ZM1834.74,120.21c9.32,0,17.14-1.46,23.45-4.37,6.32-2.91,11.13-7.33,14.45-13.24,3.31-5.91,4.97-13.39,4.97-22.45s-1.64-16.55-4.91-22.51c-3.27-5.96-8.09-10.39-14.45-13.31-6.36-2.91-14.2-4.37-23.52-4.37s-17.16,1.46-23.52,4.37c-6.36,2.91-11.18,7.33-14.45,13.24-3.27,5.91-4.91,13.44-4.91,22.58s1.63,16.55,4.91,22.51c3.27,5.96,8.08,10.37,14.45,13.24,6.36,2.87,14.2,4.3,23.52,4.3ZM1836.22,108.25c-6.72,0-12.12-1.28-16.2-3.83-4.08-2.55-7.08-5.94-9-10.15-1.93-4.21-2.89-8.82-2.89-13.84,0-5.46.99-10.37,2.96-14.72,1.97-4.34,4.97-7.82,9-10.42,4.03-2.6,9.09-3.9,15.19-3.9,4.3,0,8.11.7,11.42,2.08,3.31,1.39,6.03,3.36,8.13,5.91,2.1,2.55,3.43,5.62,3.97,9.21l-10.48,3.36c-.09-3.14-1.32-5.85-3.7-8.13-2.37-2.29-5.67-3.43-9.88-3.43-2.42,0-4.59.47-6.52,1.41-1.93.94-3.54,2.26-4.84,3.97-1.3,1.7-2.26,3.74-2.89,6.12-.63,2.38-.94,5.04-.94,8,0,4.03.6,7.51,1.82,10.42,1.21,2.91,3.07,5.13,5.58,6.65,2.51,1.53,5.6,2.29,9.27,2.29,2.87,0,5.29-.49,7.26-1.48,1.97-.99,3.56-2.4,4.77-4.23,1.21-1.84,1.99-4.01,2.35-6.52l10.35,2.42c-.54,3.05-1.48,5.71-2.82,8-1.35,2.29-3.09,4.23-5.24,5.85-2.15,1.61-4.64,2.85-7.46,3.7-2.82.85-5.89,1.28-9.21,1.28Z"/>
  <path class="st0" d="M31.36,729.29V29.62h261.84c36.74,0,70.66,3.55,101.77,10.6,31.09,7.07,58.12,18.2,81.1,33.39,22.96,15.21,40.81,34.64,53.53,58.31,12.72,23.69,19.08,52.47,19.08,86.4,0,29.69-5.48,54.78-16.43,75.27-10.97,20.5-27.93,36.57-50.88,48.23-22.98,11.66-52.84,19.61-89.58,23.85v15.91c62.89,4.24,109.19,20.14,138.87,47.7,29.68,27.56,44.53,65.72,44.53,114.49,0,41.71-10.07,76.16-30.21,103.36-20.14,27.21-49.66,47.7-88.52,61.48-38.88,13.78-86.58,20.67-143.12,20.67H31.36ZM192.5,324.33h74.21c40.98,0,70.84-6.71,89.58-20.15,18.72-13.41,28.09-34.61,28.09-63.6,0-26.86-8.48-46.99-25.44-60.43-16.96-13.41-43.12-20.14-78.45-20.14h-87.99v164.32ZM192.5,597.84h110.25c35.33,0,61.65-6.53,78.98-19.61,17.31-13.07,25.97-32.69,25.97-58.84,0-28.26-10.44-50.35-31.27-66.26-20.86-15.9-50.72-23.85-89.58-23.85h-94.35v168.55Z"/>
  <polygon class="st0" points="1310.54 30.32 1123.08 570.07 1287.11 570.07 1257.43 729.29 888.75 729.29 1084.03 192.66 902.81 192.66 932.49 30.32 1310.54 30.32"/>
  <polygon class="st0" points="1735.39 30.32 1547.92 570.07 1710.39 570.07 1682.27 729.29 1313.59 729.29 1508.87 192.66 1327.65 192.66 1357.34 30.32 1735.39 30.32"/>
  <rect class="st0" x="639.27" y="242.17" width="191.76" height="487.12"/>
  <rect class="st1" x="639.27" y="30.32" width="191.76" height="162.34"/>
</svg>