<?xml version="1.0" encoding="UTF-8"?>
<svg id="Artwork" xmlns="http://www.w3.org/2000/svg" xmlns:xlink="http://www.w3.org/1999/xlink" version="1.1" viewBox="0 0 110.74 35.02">
  <!-- Generator: Adobe Illustrator 29.3.1, SVG Export Plug-In . SVG Version: 2.1.0 Build 151)  -->
  <defs>
    <style>
      .st0 {
        fill: url(#linear-gradient);
      }

      .st1 {
        fill: #a6a6a6;
      }

      .st2 {
        fill: #34a853;
      }

      .st3 {
        fill: #fbbc04;
      }

      .st4 {
        fill: #fff;
      }

      .st5 {
        fill: #ea4335;
      }
    </style>
    <linearGradient id="linear-gradient" x1="17.12" y1="16.23" x2="5.22" y2="2.3" gradientTransform="translate(0 38) scale(1 -1)" gradientUnits="userSpaceOnUse">
      <stop offset="0" stop-color="#4285f4"/>
      <stop offset="1" stop-color="#1b74e8"/>
    </linearGradient>
  </defs>
  <path class="st1" d="M100.71.5H10.03c-.37,0-.73,0-1.09,0-.31,0-.61,0-.92.01-.67.02-1.34.06-2,.18-.67.12-1.29.32-1.9.63-.6.31-1.15.7-1.62,1.18-.48.47-.88,1.02-1.18,1.62-.31.61-.51,1.23-.62,1.9-.12.66-.16,1.33-.18,2,0,.31,0,.61-.01.92v17.13c0,.31,0,.61.01.92.02.67.06,1.34.18,2,.12.67.31,1.3.62,1.9.3.6.7,1.14,1.18,1.61.47.48,1.02.88,1.62,1.18.61.31,1.23.51,1.9.63.66.12,1.34.16,2,.18.31,0,.61.01.92.01.37,0,.73,0,1.1,0h90.68c.36,0,.72,0,1.08,0,.31,0,.62,0,.92-.01.67-.02,1.34-.06,2-.18.67-.12,1.29-.32,1.91-.63.6-.3,1.14-.7,1.62-1.18.48-.47.87-1.02,1.18-1.61.31-.61.51-1.23.62-1.9.12-.66.16-1.33.19-2,0-.31,0-.61,0-.92,0-.36,0-.72,0-1.09v-14.95c0-.37,0-.73,0-1.09,0-.31,0-.61,0-.92-.02-.67-.06-1.34-.19-2-.11-.67-.31-1.3-.62-1.9-.31-.6-.71-1.15-1.18-1.62-.47-.47-1.02-.87-1.62-1.18-.61-.31-1.24-.51-1.91-.63-.66-.12-1.33-.16-2-.18-.31,0-.62-.01-.92-.01-.36,0-.72,0-1.08,0h0Z"/>
  <path d="M100.71,1.15c.36,0,.72,0,1.08,0,.25,0,.5,0,.75,0h.16c.53.02,1.22.05,1.9.17.62.11,1.18.29,1.72.56.54.28,1.03.63,1.46,1.06.42.42.78.91,1.06,1.45.27.54.45,1.1.56,1.73.12.63.15,1.29.18,1.89,0,.3,0,.61,0,.93,0,.36,0,.72,0,1.08v14.95c0,.36,0,.72,0,1.09,0,.31,0,.61,0,.9-.02.62-.06,1.27-.18,1.92-.11.62-.29,1.18-.56,1.71-.28.55-.64,1.04-1.07,1.46-.42.43-.91.78-1.45,1.06-.53.27-1.1.46-1.73.57-.65.12-1.33.15-1.9.17-.3,0-.61.01-.91.01-.36,0-.72,0-1.08,0H10.03c-.36,0-.73,0-1.1,0-.3,0-.6,0-.9,0-.57-.02-1.24-.05-1.91-.17-.63-.11-1.2-.3-1.72-.57-.54-.27-1.03-.63-1.46-1.06-.42-.42-.78-.9-1.05-1.45-.27-.52-.45-1.09-.56-1.72-.12-.68-.15-1.37-.17-1.9,0-.21,0-.41-.01-.62v-.29s0-1.09,0-1.09V8.65c0-.2,0-.41.02-.62.01-.53.05-1.22.17-1.91.11-.63.29-1.19.56-1.72.27-.54.63-1.03,1.06-1.46.43-.43.92-.78,1.45-1.06.54-.27,1.1-.46,1.72-.57.68-.12,1.38-.15,1.9-.17h.2c.24,0,.48-.01.71-.01.36,0,.73,0,1.09,0h90.68"/>
  <g>
    <path class="st2" d="M29.77,15.17H6.63v-3.63c0-1.97,1.7-3.63,3.71-3.63h15.71c2.02,0,3.71,1.66,3.71,3.63v3.63Z"/>
    <path class="st3" d="M29.77,18.51H6.63v-3.86c0-2.09,1.7-3.86,3.71-3.86h15.71c2.02,0,3.71,1.76,3.71,3.86v3.86Z"/>
    <path class="st5" d="M29.77,21.73H6.63v-3.86c0-2.09,1.7-3.86,3.71-3.86h15.71c2.02,0,3.71,1.76,3.71,3.86v3.86Z"/>
    <path class="st0" d="M6.63,16.1l14.68,3.32c1.69.41,3.59,0,4.97-1.04l3.49-2.49v7.77c0,1.97-1.69,3.52-3.7,3.52h-15.74c-2.01,0-3.7-1.55-3.7-3.52v-7.57Z"/>
  </g>
  <path class="st4" d="M35.48,13.62l2.2-5.84h1.02l2.21,5.84h-.99l-.54-1.5h-2.38l-.54,1.5h-.99ZM37.95,9.5l-.64,1.78h1.78l-.64-1.78-.22-.67h-.05l-.22.67ZM43.2,13.75c-.37,0-.71-.09-1.02-.28-.3-.19-.54-.45-.72-.78-.17-.34-.26-.72-.26-1.15s.09-.81.26-1.14c.18-.33.42-.59.72-.78.3-.19.64-.29,1.02-.29.32,0,.59.07.82.21.23.14.4.3.51.48h.05l-.05-.58v-1.66h.87v5.84h-.82v-.55h-.05c-.11.18-.28.34-.51.48-.23.14-.5.2-.82.2ZM43.33,12.94c.22,0,.42-.06.61-.17.2-.11.35-.27.46-.48.12-.21.18-.46.18-.75s-.06-.54-.18-.74c-.11-.21-.27-.37-.46-.49-.19-.11-.39-.17-.61-.17s-.42.06-.61.17c-.19.11-.35.28-.46.49-.12.21-.18.45-.18.74s.06.54.18.75c.12.21.27.37.46.48.19.11.39.17.61.17ZM48.18,13.75c-.37,0-.71-.09-1.02-.28-.3-.19-.54-.45-.72-.78-.17-.34-.26-.72-.26-1.15s.09-.81.26-1.14c.18-.33.42-.59.72-.78.3-.19.64-.29,1.02-.29.32,0,.59.07.82.21.23.14.4.3.51.48h.05l-.05-.58v-1.66h.87v5.84h-.82v-.55h-.05c-.11.18-.28.34-.51.48-.23.14-.5.2-.82.2ZM48.31,12.94c.22,0,.42-.06.61-.17.2-.11.35-.27.46-.48.12-.21.18-.46.18-.75s-.06-.54-.18-.74c-.11-.21-.27-.37-.46-.49-.19-.11-.39-.17-.61-.17s-.42.06-.61.17c-.19.11-.35.28-.46.49-.12.21-.18.45-.18.74s.06.54.18.75c.12.21.27.37.46.48.19.11.39.17.61.17ZM53.77,12.41v-2.18h-.73v-.77h.73v-1.17h.88v1.17h1.02v.77h-1.02v2c0,.21.04.36.12.47.09.11.23.16.43.16.1,0,.19-.01.26-.04.08-.03.15-.07.23-.11v.86c-.09.04-.19.07-.29.09-.1.02-.23.03-.37.03-.39,0-.69-.11-.92-.33-.23-.23-.34-.54-.34-.94ZM58.31,13.75c-.43,0-.81-.1-1.13-.29-.33-.2-.58-.46-.77-.79-.18-.33-.28-.71-.28-1.12s.09-.79.28-1.12c.18-.34.44-.6.77-.8.33-.2.7-.29,1.13-.29s.8.1,1.12.29c.33.2.58.46.77.8.18.33.28.7.28,1.12s-.09.79-.28,1.12c-.18.33-.44.59-.77.79-.33.2-.7.29-1.12.29ZM58.31,12.94c.23,0,.44-.05.64-.16.2-.11.35-.27.47-.48.12-.21.19-.46.19-.76s-.06-.54-.19-.75c-.12-.21-.28-.37-.47-.48-.2-.11-.41-.17-.64-.17s-.44.06-.64.17c-.2.11-.36.27-.48.48-.12.21-.18.46-.18.75s.06.55.18.76c.12.21.29.37.48.48.2.11.42.16.64.16Z"/>
  <path class="st4" d="M39.83,26.33c-.55,0-1.06-.1-1.55-.3-.48-.2-.9-.48-1.27-.83-.37-.36-.66-.79-.87-1.27-.21-.49-.31-1.02-.31-1.59s.1-1.09.31-1.58c.21-.49.5-.91.86-1.27.37-.36.8-.64,1.28-.84.48-.2,1-.3,1.55-.3.58,0,1.12.1,1.61.31.5.21.91.49,1.25.86l-.81.8c-.25-.28-.55-.49-.9-.64-.34-.15-.72-.22-1.15-.22-.5,0-.97.12-1.4.36-.43.23-.77.57-1.03,1-.26.43-.38.93-.38,1.51s.13,1.09.39,1.52c.26.43.61.76,1.03,1,.43.23.89.35,1.4.35.46,0,.88-.09,1.26-.26.38-.18.68-.43.91-.75.23-.32.38-.7.43-1.15h-2.61v-1.03h3.71c.04.19.06.39.06.61h0c0,.75-.16,1.4-.49,1.95-.32.55-.76.97-1.33,1.28s-1.22.46-1.94.46ZM47.03,26.33c-.56,0-1.06-.13-1.48-.38s-.76-.6-1-1.03c-.24-.43-.36-.92-.36-1.47s.12-1.03.36-1.46c.24-.44.58-.79,1-1.04.43-.26.92-.38,1.48-.38s1.04.13,1.47.38c.43.26.76.6,1,1.04.24.43.36.92.36,1.46s-.12,1.04-.36,1.47c-.24.43-.58.78-1,1.03s-.92.38-1.47.38ZM47.03,25.27c.3,0,.58-.07.83-.21.26-.15.46-.36.62-.63.16-.28.25-.61.25-.99s-.08-.71-.25-.98c-.16-.28-.36-.49-.62-.63-.26-.15-.53-.22-.83-.22s-.58.07-.84.22c-.26.14-.47.35-.63.63-.16.27-.23.6-.23.98s.08.71.23.99c.16.27.37.48.63.63.26.14.54.21.84.21ZM53.48,26.33c-.56,0-1.06-.13-1.48-.38s-.76-.6-1-1.03c-.24-.43-.36-.92-.36-1.47s.12-1.03.36-1.46c.24-.44.58-.79,1-1.04.43-.26.92-.38,1.48-.38s1.04.13,1.47.38c.43.26.76.6,1,1.04.24.43.36.92.36,1.46s-.12,1.04-.36,1.47c-.24.43-.58.78-1,1.03-.43.26-.92.38-1.47.38ZM53.48,25.27c.3,0,.58-.07.83-.21.26-.15.46-.36.62-.63.16-.28.25-.61.25-.99s-.08-.71-.25-.98c-.16-.28-.36-.49-.62-.63-.26-.15-.53-.22-.83-.22s-.58.07-.84.22c-.26.14-.47.35-.63.63-.16.27-.23.6-.23.98s.08.71.23.99c.16.27.37.48.63.63.26.14.54.21.84.21ZM59.83,28.63c-.48,0-.89-.08-1.24-.23-.34-.15-.62-.34-.83-.59-.21-.23-.37-.48-.46-.72l1.07-.45c.11.28.29.52.54.69.26.18.56.28.92.28.5,0,.89-.15,1.17-.45.29-.3.44-.72.44-1.27v-.52h-.06c-.17.26-.41.46-.71.62-.3.15-.64.22-1.02.22-.46,0-.88-.12-1.27-.35-.38-.23-.69-.56-.93-.98-.23-.43-.35-.92-.35-1.49s.12-1.07.35-1.49c.23-.43.54-.76.93-.99.38-.23.81-.35,1.27-.35.38,0,.72.08,1.02.23.31.16.54.36.71.62h.06v-.68h1.1v5.15c0,.59-.12,1.09-.35,1.5-.23.41-.54.72-.95.94-.41.21-.87.32-1.41.32ZM59.84,25.16c.28,0,.55-.07.79-.2.24-.14.44-.34.59-.61.15-.27.22-.59.22-.97s-.07-.72-.22-.98c-.15-.27-.34-.47-.59-.61-.24-.13-.5-.2-.79-.2s-.55.07-.8.21c-.24.13-.44.33-.59.6s-.22.59-.22.98.07.71.22.98c.15.26.34.46.59.6.25.13.51.2.8.2ZM63.89,26.16v-7.63h1.15v7.63h-1.15ZM68.83,26.33c-.53,0-1.01-.12-1.43-.37-.42-.25-.75-.59-.99-1.02-.23-.43-.35-.93-.35-1.48,0-.52.11-1,.34-1.44.23-.44.54-.79.95-1.06.41-.27.88-.41,1.42-.41.56,0,1.04.12,1.43.36.4.24.7.57.91.99.21.42.31.89.31,1.42,0,.08,0,.15-.01.21,0,.06,0,.11-.01.15h-4.2c.06.54.25.94.56,1.22.33.27.7.41,1.11.41.37,0,.68-.08.92-.25.24-.17.43-.38.58-.63l.95.46c-.23.43-.55.77-.96,1.04-.41.26-.91.39-1.51.39ZM68.78,21.53c-.38,0-.71.12-.98.35-.27.23-.45.55-.54.94h3.02c-.01-.18-.07-.38-.18-.58-.11-.2-.27-.37-.49-.5-.21-.14-.49-.21-.82-.21ZM76.09,26.16l-2.05-7.63h1.3l1.22,4.96.13.66h.06l.16-.66,1.53-4.96h1.17l1.47,4.96.16.65h.06l.13-.65,1.22-4.96h1.29l-2.01,7.63h-1.24l-1.46-5.06-.17-.71h-.06l-.18.71-1.52,5.06h-1.2ZM86.09,26.33c-.39,0-.74-.07-1.04-.22-.31-.16-.54-.37-.71-.65-.17-.28-.26-.59-.26-.95,0-.38.1-.71.3-.98.21-.28.48-.49.82-.63.34-.14.72-.21,1.13-.21.34,0,.64.03.9.1.26.06.46.13.6.2v-.29c0-.36-.13-.64-.38-.85-.26-.21-.59-.32-.99-.32-.28,0-.54.06-.79.19-.25.12-.45.29-.6.5l-.79-.61c.23-.33.54-.58.93-.77.39-.19.82-.29,1.28-.29.79,0,1.4.2,1.82.59.43.38.64.92.64,1.62v3.4h-1.12v-.67h-.06c-.14.22-.36.42-.64.59-.28.17-.63.26-1.02.26ZM86.29,25.39c.3,0,.56-.07.79-.21.23-.14.41-.33.53-.55.13-.23.2-.49.2-.76-.16-.09-.36-.17-.58-.22-.22-.06-.45-.1-.7-.1-.47,0-.8.1-1,.29-.2.18-.3.41-.3.68,0,.26.1.47.29.63s.45.25.77.25ZM90.21,26.16v-7.63h1.15v7.63h-1.15ZM92.73,26.16v-7.63h1.15v7.63h-1.15ZM97.67,26.33c-.53,0-1.01-.12-1.43-.37-.42-.25-.75-.59-.99-1.02-.23-.43-.35-.93-.35-1.48,0-.52.11-1,.34-1.44.23-.44.54-.79.95-1.06.41-.27.88-.41,1.42-.41.56,0,1.04.12,1.43.36.4.24.7.57.91.99.21.42.31.89.31,1.42,0,.08,0,.15-.01.21,0,.06,0,.11-.01.15h-4.2c.06.54.25.94.56,1.22.33.27.7.41,1.11.41.37,0,.68-.08.92-.25.24-.17.43-.38.58-.63l.95.46c-.23.43-.55.77-.96,1.04-.41.26-.91.39-1.51.39ZM97.62,21.53c-.38,0-.71.12-.98.35-.27.23-.45.55-.54.94h3.02c-.01-.18-.07-.38-.18-.58-.11-.2-.27-.37-.49-.5-.21-.14-.49-.21-.82-.21ZM101.74,24.58v-2.86h-.95v-1h.95v-1.53h1.15v1.53h1.33v1h-1.33v2.61c0,.27.05.48.16.62.11.14.3.21.56.21.13,0,.25-.02.34-.05.1-.04.2-.09.3-.15v1.12c-.12.05-.25.09-.38.12-.14.03-.3.04-.48.04-.5,0-.91-.15-1.2-.44-.3-.3-.45-.71-.45-1.23Z"/>
</svg>